<svg width="179" height="35" viewBox="0 0 179 35" fill="none" xmlns="http://www.w3.org/2000/svg">
<g clip-path="url(#clip0_102_865)">
<path d="M54.8689 30.733C52.6576 30.733 50.6618 30.2591 48.8812 29.3114C47.1294 28.335 45.751 26.9996 44.7459 25.3053C43.7407 23.5822 43.2382 21.5863 43.2382 19.3176C43.2382 17.2786 43.6976 15.4119 44.6166 13.7176C45.5643 11.9945 46.871 10.6304 48.5366 9.62526C50.2023 8.59142 52.1264 8.0745 54.3089 8.0745C56.5776 8.0745 58.5018 8.57706 60.0812 9.58219C61.6607 10.5586 62.8669 11.8653 63.6997 13.5022C64.5612 15.1391 64.992 16.934 64.992 18.8868V20.696H48.1059L49.0535 19.1883C48.9961 20.3945 49.1971 21.4714 49.6566 22.4191C50.1448 23.3668 50.8197 24.1135 51.6812 24.6591C52.5715 25.176 53.6197 25.4345 54.8259 25.4345C55.9746 25.4345 57.0084 25.1617 57.9274 24.616C58.8751 24.0704 59.593 23.3094 60.0812 22.333L64.7766 24.7022C63.8576 26.6263 62.5366 28.1196 60.8135 29.1822C59.1192 30.216 57.1376 30.733 54.8689 30.733ZM49.3982 17.293H58.9182C58.832 16.5463 58.5735 15.8858 58.1428 15.3114C57.7407 14.7083 57.2094 14.2489 56.5489 13.933C55.8884 13.5883 55.1274 13.416 54.2659 13.416C53.3756 13.416 52.5859 13.5883 51.8966 13.933C51.2361 14.2776 50.6905 14.7514 50.2597 15.3545C49.8576 15.9289 49.5705 16.575 49.3982 17.293ZM71.5471 26.6407L65.0425 8.84988H71.5471L77.1902 24.9176C77.1327 24.8889 77.104 24.8889 77.104 24.9176C77.1327 24.9176 77.1471 24.9176 77.1471 24.9176C77.1471 24.8889 77.1184 24.8889 77.0609 24.9176L82.704 8.84988H89.2086L82.6179 26.6407C82.1009 28.0191 81.383 29.053 80.464 29.7422C79.5451 30.4314 78.4251 30.776 77.104 30.776C75.8117 30.776 74.6774 30.4314 73.7009 29.7422C72.7533 29.053 72.0353 28.0191 71.5471 26.6407ZM100.473 30.733C98.262 30.733 96.2661 30.2591 94.4856 29.3114C92.7338 28.335 91.3553 26.9996 90.3502 25.3053C89.3451 23.5822 88.8425 21.5863 88.8425 19.3176C88.8425 17.2786 89.302 15.4119 90.221 13.7176C91.1686 11.9945 92.4753 10.6304 94.141 9.62526C95.8066 8.59142 97.7307 8.0745 99.9133 8.0745C102.182 8.0745 104.106 8.57706 105.686 9.58219C107.265 10.5586 108.471 11.8653 109.304 13.5022C110.166 15.1391 110.596 16.934 110.596 18.8868V20.696H93.7102L94.6579 19.1883C94.6004 20.3945 94.8015 21.4714 95.261 22.4191C95.7492 23.3668 96.424 24.1135 97.2856 24.6591C98.1758 25.176 99.224 25.4345 100.43 25.4345C101.579 25.4345 102.613 25.1617 103.532 24.616C104.479 24.0704 105.197 23.3094 105.686 22.333L110.381 24.7022C109.462 26.6263 108.141 28.1196 106.418 29.1822C104.724 30.216 102.742 30.733 100.473 30.733ZM95.0025 17.293H104.522C104.436 16.5463 104.178 15.8858 103.747 15.3114C103.345 14.7083 102.814 14.2489 102.153 13.933C101.493 13.5883 100.732 13.416 99.8702 13.416C98.9799 13.416 98.1902 13.5883 97.501 13.933C96.8404 14.2776 96.2948 14.7514 95.864 15.3545C95.462 15.9289 95.1748 16.575 95.0025 17.293ZM124.466 14.1914C123.318 14.1914 122.37 14.4786 121.623 15.053C120.877 15.5986 120.331 16.3309 119.986 17.2499C119.642 18.1401 119.47 19.1453 119.47 20.2653V30.173H113.353V19.533C113.353 17.4653 113.755 15.5842 114.559 13.8899C115.392 12.1668 116.626 10.8027 118.263 9.79757C119.9 8.76373 121.968 8.2468 124.466 8.2468C126.965 8.2468 129.033 8.76373 130.67 9.79757C132.335 10.8027 133.584 12.1524 134.417 13.8468C135.25 15.5412 135.666 17.4365 135.666 19.533V30.173H129.55V20.2653C129.55 19.174 129.363 18.1689 128.99 17.2499C128.616 16.3309 128.056 15.5986 127.31 15.053C126.592 14.4786 125.644 14.1914 124.466 14.1914ZM150.042 30.776C148.003 30.776 146.294 30.4027 144.916 29.656C143.566 28.8807 142.547 27.8181 141.857 26.4683C141.168 25.0899 140.824 23.5104 140.824 21.7299V3.42219H146.94V21.5576C146.94 22.735 147.271 23.654 147.931 24.3145C148.592 24.975 149.482 25.3053 150.602 25.3053C151.234 25.3053 151.909 25.2191 152.627 25.0468C153.345 24.8745 153.962 24.616 154.479 24.2714V29.7422C153.933 30.0581 153.244 30.3022 152.411 30.4745C151.607 30.6755 150.817 30.776 150.042 30.776ZM154.479 14.0191H136.904V8.84988H154.479V14.0191ZM167.492 30.733C165.28 30.733 163.284 30.2591 161.504 29.3114C159.752 28.335 158.374 26.9996 157.368 25.3053C156.363 23.5822 155.861 21.5863 155.861 19.3176C155.861 17.2786 156.32 15.4119 157.239 13.7176C158.187 11.9945 159.494 10.6304 161.159 9.62526C162.825 8.59142 164.749 8.0745 166.932 8.0745C169.2 8.0745 171.124 8.57706 172.704 9.58219C174.283 10.5586 175.489 11.8653 176.322 13.5022C177.184 15.1391 177.615 16.934 177.615 18.8868V20.696H160.728L161.676 19.1883C161.619 20.3945 161.82 21.4714 162.279 22.4191C162.767 23.3668 163.442 24.1135 164.304 24.6591C165.194 25.176 166.242 25.4345 167.448 25.4345C168.597 25.4345 169.631 25.1617 170.55 24.616C171.498 24.0704 172.216 23.3094 172.704 22.333L177.399 24.7022C176.48 26.6263 175.159 28.1196 173.436 29.1822C171.742 30.216 169.76 30.733 167.492 30.733ZM162.021 17.293H171.541C171.455 16.5463 171.196 15.8858 170.765 15.3114C170.363 14.7083 169.832 14.2489 169.172 13.933C168.511 13.5883 167.75 13.416 166.888 13.416C165.998 13.416 165.208 13.5883 164.519 13.933C163.859 14.2776 163.313 14.7514 162.882 15.3545C162.48 15.9289 162.193 16.575 162.021 17.293Z" fill="white"/>
<path fill-rule="evenodd" clip-rule="evenodd" d="M20.4509 0.67308C25.533 0.67308 30.0867 2.92616 33.172 6.48616C30.6468 4.33434 27.3747 3.03692 23.7958 3.03692C17.4257 3.03692 12.0177 7.15386 10.0874 12.872C8.95135 11.8056 7.41976 11.1506 5.73945 11.1506C5.43249 11.1506 5.13504 11.1727 4.84074 11.2138C7.33116 5.03368 13.3816 0.67308 20.4509 0.67308ZM10.0906 22.1312C12.0209 27.8493 17.4289 31.9663 23.7989 31.9663C27.3747 31.9663 30.6499 30.6657 33.1752 28.517C30.0898 32.077 25.5362 34.3301 20.4541 34.3301C13.3847 34.3301 7.33432 29.9695 4.84391 23.7925C5.1382 23.8336 5.43882 23.8558 5.74261 23.8558C7.42293 23.8526 8.95452 23.1976 10.0906 22.1312Z" fill="#F2F2F2"/>
<path d="M6.54738 22.5029C9.30959 22.0569 11.1872 19.4561 10.7412 16.6939C10.2952 13.9317 7.69446 12.054 4.93225 12.5C2.17004 12.946 0.292384 15.5468 0.738389 18.309C1.18439 21.0712 3.78517 22.9489 6.54738 22.5029Z" fill="white"/>
<path fill-rule="evenodd" clip-rule="evenodd" d="M24.359 4.49256C20.432 4.49256 16.9099 6.23301 14.5271 8.98607C16.4796 7.32474 19.008 6.31845 21.7737 6.31845C26.6975 6.31845 30.8778 9.49871 32.3682 13.9194C33.2479 13.0935 34.4283 12.5872 35.7289 12.5872C35.9662 12.5872 36.1972 12.603 36.425 12.6378C34.5011 7.86269 29.824 4.49256 24.359 4.49256ZM32.3682 21.0806C30.8746 25.5013 26.6975 28.6816 21.7737 28.6816C19.008 28.6816 16.4796 27.6784 14.5271 26.0139C16.9131 28.767 20.432 30.5074 24.359 30.5074C29.824 30.5074 34.5011 27.1373 36.425 22.3622C36.1972 22.3938 35.9662 22.4128 35.7289 22.4128C34.4283 22.4096 33.2479 21.9065 32.3682 21.0806Z" fill="#F2F2F2"/>
<path fill-rule="evenodd" clip-rule="evenodd" d="M35.7289 21.416C37.887 21.416 39.6464 19.6566 39.6464 17.4984C39.6464 15.3403 37.887 13.5808 35.7289 13.5808C33.5707 13.5808 31.8113 15.3403 31.8113 17.4984C31.8145 19.6566 33.5739 21.416 35.7289 21.416Z" fill="white"/>
<path fill-rule="evenodd" clip-rule="evenodd" d="M22.799 8.39432C25.5489 8.39432 28.014 9.61263 29.6816 11.5398C28.3146 10.3753 26.5425 9.67276 24.609 9.67276C21.1629 9.67276 18.2358 11.9005 17.1916 14.9953C16.5777 14.4163 15.7486 14.0618 14.8372 14.0618C14.6727 14.0618 14.5081 14.0745 14.3499 14.0966C15.6979 10.755 18.9731 8.39432 22.799 8.39432ZM17.1916 20.0047C18.2358 23.0995 21.1629 25.3273 24.609 25.3273C26.5457 25.3273 28.3146 24.6247 29.6816 23.4602C28.0108 25.3874 25.5457 26.6057 22.799 26.6057C18.9731 26.6057 15.6979 24.245 14.3531 20.9034C14.5113 20.9255 14.6758 20.9382 14.8404 20.9382C15.7486 20.9382 16.5777 20.5838 17.1916 20.0047Z" fill="#F2F2F2"/>
<path fill-rule="evenodd" clip-rule="evenodd" d="M14.8372 20.242C16.3467 20.242 17.5808 19.011 17.5808 17.4984C17.5808 15.989 16.3498 14.7548 14.8372 14.7548C13.3246 14.7548 12.0936 15.9858 12.0936 17.4984C12.0968 19.011 13.3278 20.242 14.8372 20.242Z" fill="white"/>
</g>
<defs>
<clipPath id="clip0_102_865">
<rect width="178.365" height="35" fill="white"/>
</clipPath>
</defs>
</svg>
