<svg width="336" height="60" viewBox="0 0 336 60" fill="none" xmlns="http://www.w3.org/2000/svg">
<path d="M100.215 51.7295C96.4247 51.7295 93.0032 50.9172 89.9508 49.2926C86.9478 47.6188 84.5847 45.3295 82.8616 42.4249C81.1385 39.4711 80.277 36.0495 80.277 32.1603C80.277 28.6649 81.0647 25.4649 82.6401 22.5603C84.2647 19.6065 86.5047 17.268 89.3601 15.5449C92.2155 13.7726 95.5139 12.8865 99.2555 12.8865C103.145 12.8865 106.443 13.748 109.151 15.4711C111.859 17.1449 113.926 19.3849 115.354 22.1911C116.831 24.9972 117.569 28.0741 117.569 31.4218V34.5234H88.6216L90.2462 31.9388C90.1478 34.0065 90.4924 35.8526 91.2801 37.4772C92.117 39.1018 93.2739 40.3818 94.7508 41.3172C96.277 42.2034 98.0739 42.6465 100.142 42.6465C102.111 42.6465 103.883 42.1788 105.459 41.2434C107.083 40.308 108.314 39.0034 109.151 37.3295L117.2 41.3911C115.625 44.6895 113.36 47.2495 110.406 49.0711C107.502 50.8434 104.105 51.7295 100.215 51.7295ZM90.837 28.6895H107.157C107.009 27.4095 106.566 26.2772 105.828 25.2926C105.139 24.2588 104.228 23.4711 103.095 22.9295C101.963 22.3388 100.659 22.0434 99.1816 22.0434C97.6555 22.0434 96.3016 22.3388 95.1201 22.9295C93.9878 23.5203 93.0524 24.3326 92.3139 25.3665C91.6247 26.3511 91.1324 27.4588 90.837 28.6895ZM128.807 44.7141L117.656 14.2157H128.807L138.48 41.7603C138.382 41.7111 138.333 41.7111 138.333 41.7603C138.382 41.7603 138.407 41.7603 138.407 41.7603C138.407 41.7111 138.357 41.7111 138.259 41.7603L147.933 14.2157H159.084L147.785 44.7141C146.899 47.0772 145.668 48.8495 144.093 50.0311C142.517 51.2126 140.597 51.8034 138.333 51.8034C136.117 51.8034 134.173 51.2126 132.499 50.0311C130.874 48.8495 129.644 47.0772 128.807 44.7141ZM178.394 51.7295C174.604 51.7295 171.182 50.9172 168.13 49.2926C165.127 47.6188 162.764 45.3295 161.04 42.4249C159.317 39.4711 158.456 36.0495 158.456 32.1603C158.456 28.6649 159.244 25.4649 160.819 22.5603C162.444 19.6065 164.684 17.268 167.539 15.5449C170.394 13.7726 173.693 12.8865 177.434 12.8865C181.324 12.8865 184.622 13.748 187.33 15.4711C190.037 17.1449 192.105 19.3849 193.533 22.1911C195.01 24.9972 195.748 28.0741 195.748 31.4218V34.5234H166.8L168.425 31.9388C168.327 34.0065 168.671 35.8526 169.459 37.4772C170.296 39.1018 171.453 40.3818 172.93 41.3172C174.456 42.2034 176.253 42.6465 178.32 42.6465C180.29 42.6465 182.062 42.1788 183.637 41.2434C185.262 40.308 186.493 39.0034 187.33 37.3295L195.379 41.3911C193.804 44.6895 191.539 47.2495 188.585 49.0711C185.68 50.8434 182.284 51.7295 178.394 51.7295ZM169.016 28.6895H185.336C185.188 27.4095 184.745 26.2772 184.007 25.2926C183.317 24.2588 182.407 23.4711 181.274 22.9295C180.142 22.3388 178.837 22.0434 177.36 22.0434C175.834 22.0434 174.48 22.3388 173.299 22.9295C172.167 23.5203 171.231 24.3326 170.493 25.3665C169.804 26.3511 169.311 27.4588 169.016 28.6895ZM219.525 23.3726C217.556 23.3726 215.932 23.8649 214.652 24.8495C213.372 25.7849 212.436 27.0403 211.845 28.6157C211.255 30.1418 210.959 31.8649 210.959 33.7849V50.7695H200.473V32.5295C200.473 28.9849 201.162 25.7603 202.541 22.8557C203.969 19.9018 206.085 17.5634 208.892 15.8403C211.698 14.068 215.242 13.1818 219.525 13.1818C223.809 13.1818 227.353 14.068 230.159 15.8403C233.015 17.5634 235.156 19.8772 236.584 22.7818C238.012 25.6865 238.725 28.9357 238.725 32.5295V50.7695H228.239V33.7849C228.239 31.9141 227.919 30.1911 227.279 28.6157C226.639 27.0403 225.679 25.7849 224.399 24.8495C223.169 23.8649 221.544 23.3726 219.525 23.3726ZM263.369 51.8034C259.874 51.8034 256.945 51.1634 254.582 49.8834C252.268 48.5541 250.52 46.7326 249.339 44.4188C248.157 42.0557 247.566 39.348 247.566 36.2957V4.91107H258.052V36.0003C258.052 38.0188 258.619 39.5941 259.751 40.7265C260.883 41.8588 262.409 42.4249 264.329 42.4249C265.412 42.4249 266.569 42.2772 267.8 41.9818C269.031 41.6865 270.089 41.2434 270.975 40.6526V50.0311C270.04 50.5726 268.859 50.9911 267.431 51.2865C266.052 51.6311 264.699 51.8034 263.369 51.8034ZM270.975 23.0772H240.846V14.2157H270.975V23.0772ZM293.283 51.7295C289.492 51.7295 286.07 50.9172 283.018 49.2926C280.015 47.6188 277.652 45.3295 275.929 42.4249C274.206 39.4711 273.344 36.0495 273.344 32.1603C273.344 28.6649 274.132 25.4649 275.707 22.5603C277.332 19.6065 279.572 17.268 282.427 15.5449C285.283 13.7726 288.581 12.8865 292.323 12.8865C296.212 12.8865 299.51 13.748 302.218 15.4711C304.926 17.1449 306.994 19.3849 308.421 22.1911C309.898 24.9972 310.637 28.0741 310.637 31.4218V34.5234H281.689L283.314 31.9388C283.215 34.0065 283.56 35.8526 284.347 37.4772C285.184 39.1018 286.341 40.3818 287.818 41.3172C289.344 42.2034 291.141 42.6465 293.209 42.6465C295.178 42.6465 296.95 42.1788 298.526 41.2434C300.15 40.308 301.381 39.0034 302.218 37.3295L310.267 41.3911C308.692 44.6895 306.427 47.2495 303.474 49.0711C300.569 50.8434 297.172 51.7295 293.283 51.7295ZM283.904 28.6895H300.224C300.077 27.4095 299.634 26.2772 298.895 25.2926C298.206 24.2588 297.295 23.4711 296.163 22.9295C295.03 22.3388 293.726 22.0434 292.249 22.0434C290.723 22.0434 289.369 22.3388 288.187 22.9295C287.055 23.5203 286.12 24.3326 285.381 25.3665C284.692 26.3511 284.2 27.4588 283.904 28.6895Z" fill="white"/>
<path fill-rule="evenodd" clip-rule="evenodd" d="M33.9053 1.1543C42.6175 1.1543 50.4237 5.01673 55.7128 11.1196C51.3839 7.43074 45.7747 5.20659 39.6393 5.20659C28.7192 5.20659 19.4483 12.2642 16.1392 22.0667C14.1917 20.2386 11.5661 19.1157 8.68559 19.1157C8.15939 19.1157 7.64946 19.1536 7.14496 19.2242C11.4142 8.62961 21.7864 1.1543 33.9053 1.1543ZM16.1446 37.9396C19.4537 47.7421 28.7246 54.7997 39.6447 54.7997C45.7747 54.7997 51.3893 52.5702 55.7182 48.8867C50.4291 54.9896 42.6229 58.852 33.9107 58.852C21.7918 58.852 11.4197 51.3767 7.15038 40.7876C7.65488 40.8581 8.17024 40.8961 8.69101 40.8961C11.5716 40.8907 14.1971 39.7677 16.1446 37.9396Z" fill="#5033FF"/>
<path d="M10.0706 38.5768C14.8058 37.8122 18.0247 33.3538 17.2601 28.6186C16.4955 23.8833 12.037 20.6645 7.30183 21.4291C2.56661 22.1937 -0.652231 26.6521 0.11235 31.3873C0.87693 36.1226 5.3354 39.3414 10.0706 38.5768Z" fill="#F248B4"/>
<path fill-rule="evenodd" clip-rule="evenodd" d="M40.6049 7.70198C33.8727 7.70198 27.835 10.6856 23.7501 15.4051C27.0972 12.5571 31.4316 10.8321 36.1728 10.8321C44.6138 10.8321 51.7799 16.2839 54.3349 23.8623C55.843 22.4465 57.8664 21.5785 60.096 21.5785C60.5029 21.5785 60.8989 21.6056 61.2895 21.6653C57.9912 13.4793 49.9734 7.70198 40.6049 7.70198ZM54.3349 36.1386C51.7745 43.717 44.6138 49.1688 36.1728 49.1688C31.4316 49.1688 27.0972 47.4492 23.7501 44.5958C27.8404 49.3153 33.8727 52.2989 40.6049 52.2989C49.9734 52.2989 57.9912 46.5216 61.2895 38.3356C60.8989 38.3898 60.5029 38.4224 60.096 38.4224C57.8664 38.417 55.843 37.5544 54.3349 36.1386Z" fill="#5033FF"/>
<path fill-rule="evenodd" clip-rule="evenodd" d="M60.096 36.7136C63.7957 36.7136 66.8119 33.6974 66.8119 29.9977C66.8119 26.2981 63.7957 23.2819 60.096 23.2819C56.3963 23.2819 53.3802 26.2981 53.3802 29.9977C53.3856 33.6974 56.4018 36.7136 60.096 36.7136Z" fill="#F248B4"/>
<path fill-rule="evenodd" clip-rule="evenodd" d="M37.9305 14.3907C42.6446 14.3907 46.8705 16.4792 49.7293 19.7829C47.3858 17.7866 44.348 16.5823 41.0334 16.5823C35.1259 16.5823 30.108 20.4013 28.3178 25.7068C27.2654 24.714 25.8441 24.1065 24.2818 24.1065C23.9997 24.1065 23.7176 24.1281 23.4464 24.1661C25.7573 18.4376 31.3719 14.3907 37.9305 14.3907ZM28.3178 34.2941C30.108 39.5996 35.1259 43.4186 41.0334 43.4186C44.3534 43.4186 47.3858 42.2143 49.7293 40.218C46.865 43.5217 42.6392 45.6102 37.9305 45.6102C31.3719 45.6102 25.7573 41.5633 23.4518 35.8348C23.723 35.8727 24.0051 35.8945 24.2872 35.8945C25.8441 35.8945 27.2654 35.2869 28.3178 34.2941Z" fill="#5033FF"/>
<path fill-rule="evenodd" clip-rule="evenodd" d="M24.2818 34.701C26.8694 34.701 28.985 32.5908 28.985 29.9977C28.985 27.4101 26.8748 25.2945 24.2818 25.2945C21.6887 25.2945 19.5785 27.4047 19.5785 29.9977C19.5839 32.5908 21.6942 34.701 24.2818 34.701Z" fill="#F248B4"/>
</svg>
